<svg width="240" height="240" viewBox="0 0 240 240" fill="none" xmlns="http://www.w3.org/2000/svg">
<rect x="0.5" y="0.5" width="239" height="239" rx="19.5" fill="white" fill-opacity="0.11" stroke="#DCE0E7"/>
<path d="M46.8946 103.35H37.7746L36.0946 108H33.2146L40.7746 87.21H43.9246L51.4546 108H48.5746L46.8946 103.35ZM46.1146 101.13L42.3346 90.57L38.5546 101.13H46.1146ZM57.4795 94.59C58.0195 93.65 58.8195 92.87 59.8795 92.25C60.9595 91.61 62.2095 91.29 63.6295 91.29C65.0895 91.29 66.4095 91.64 67.5895 92.34C68.7895 93.04 69.7295 94.03 70.4095 95.31C71.0895 96.57 71.4295 98.04 71.4295 99.72C71.4295 101.38 71.0895 102.86 70.4095 104.16C69.7295 105.46 68.7895 106.47 67.5895 107.19C66.4095 107.91 65.0895 108.27 63.6295 108.27C62.2295 108.27 60.9895 107.96 59.9095 107.34C58.8495 106.7 58.0395 105.91 57.4795 104.97V115.8H54.7495V91.56H57.4795V94.59ZM68.6395 99.72C68.6395 98.48 68.3895 97.4 67.8895 96.48C67.3895 95.56 66.7095 94.86 65.8495 94.38C65.0095 93.9 64.0795 93.66 63.0595 93.66C62.0595 93.66 61.1295 93.91 60.2695 94.41C59.4295 94.89 58.7495 95.6 58.2295 96.54C57.7295 97.46 57.4795 98.53 57.4795 99.75C57.4795 100.99 57.7295 102.08 58.2295 103.02C58.7495 103.94 59.4295 104.65 60.2695 105.15C61.1295 105.63 62.0595 105.87 63.0595 105.87C64.0795 105.87 65.0095 105.63 65.8495 105.15C66.7095 104.65 67.3895 103.94 67.8895 103.02C68.3895 102.08 68.6395 100.98 68.6395 99.72ZM77.7529 94.59C78.2929 93.65 79.0929 92.87 80.1529 92.25C81.2329 91.61 82.4829 91.29 83.9029 91.29C85.3629 91.29 86.6829 91.64 87.8629 92.34C89.0629 93.04 90.0029 94.03 90.6829 95.31C91.3629 96.57 91.7029 98.04 91.7029 99.72C91.7029 101.38 91.3629 102.86 90.6829 104.16C90.0029 105.46 89.0629 106.47 87.8629 107.19C86.6829 107.91 85.3629 108.27 83.9029 108.27C82.5029 108.27 81.2629 107.96 80.1829 107.34C79.1229 106.7 78.3129 105.91 77.7529 104.97V115.8H75.0229V91.56H77.7529V94.59ZM88.9129 99.72C88.9129 98.48 88.6629 97.4 88.1629 96.48C87.6629 95.56 86.9829 94.86 86.1229 94.38C85.2829 93.9 84.3529 93.66 83.3329 93.66C82.3329 93.66 81.4029 93.91 80.5429 94.41C79.7029 94.89 79.0229 95.6 78.5029 96.54C78.0029 97.46 77.7529 98.53 77.7529 99.75C77.7529 100.99 78.0029 102.08 78.5029 103.02C79.0229 103.94 79.7029 104.65 80.5429 105.15C81.4029 105.63 82.3329 105.87 83.3329 105.87C84.3529 105.87 85.2829 105.63 86.1229 105.15C86.9829 104.65 87.6629 103.94 88.1629 103.02C88.6629 102.08 88.9129 100.98 88.9129 99.72ZM116.164 87.09V89.31H110.464V108H107.734V89.31H102.004V87.09H116.164ZM127.685 91.26C128.925 91.26 130.045 91.53 131.045 92.07C132.045 92.59 132.825 93.38 133.385 94.44C133.965 95.5 134.255 96.79 134.255 98.31V108H131.555V98.7C131.555 97.06 131.145 95.81 130.325 94.95C129.505 94.07 128.385 93.63 126.965 93.63C125.525 93.63 124.375 94.08 123.515 94.98C122.675 95.88 122.255 97.19 122.255 98.91V108H119.525V85.8H122.255V93.9C122.795 93.06 123.535 92.41 124.475 91.95C125.435 91.49 126.505 91.26 127.685 91.26ZM153.294 91.56V108H150.564V105.57C150.044 106.41 149.314 107.07 148.374 107.55C147.454 108.01 146.434 108.24 145.314 108.24C144.034 108.24 142.884 107.98 141.864 107.46C140.844 106.92 140.034 106.12 139.434 105.06C138.854 104 138.564 102.71 138.564 101.19V91.56H141.264V100.83C141.264 102.45 141.674 103.7 142.494 104.58C143.314 105.44 144.434 105.87 145.854 105.87C147.314 105.87 148.464 105.42 149.304 104.52C150.144 103.62 150.564 102.31 150.564 100.59V91.56H153.294ZM177.674 91.26C178.954 91.26 180.094 91.53 181.094 92.07C182.094 92.59 182.884 93.38 183.464 94.44C184.044 95.5 184.334 96.79 184.334 98.31V108H181.634V98.7C181.634 97.06 181.224 95.81 180.404 94.95C179.604 94.07 178.514 93.63 177.134 93.63C175.714 93.63 174.584 94.09 173.744 95.01C172.904 95.91 172.484 97.22 172.484 98.94V108H169.784V98.7C169.784 97.06 169.374 95.81 168.554 94.95C167.754 94.07 166.664 93.63 165.284 93.63C163.864 93.63 162.734 94.09 161.894 95.01C161.054 95.91 160.634 97.22 160.634 98.94V108H157.904V91.56H160.634V93.93C161.174 93.07 161.894 92.41 162.794 91.95C163.714 91.49 164.724 91.26 165.824 91.26C167.204 91.26 168.424 91.57 169.484 92.19C170.544 92.81 171.334 93.72 171.854 94.92C172.314 93.76 173.074 92.86 174.134 92.22C175.194 91.58 176.374 91.26 177.674 91.26ZM191.542 94.62C192.102 93.64 192.922 92.84 194.002 92.22C195.082 91.6 196.312 91.29 197.692 91.29C199.172 91.29 200.502 91.64 201.682 92.34C202.862 93.04 203.792 94.03 204.472 95.31C205.152 96.57 205.492 98.04 205.492 99.72C205.492 101.38 205.152 102.86 204.472 104.16C203.792 105.46 202.852 106.47 201.652 107.19C200.472 107.91 199.152 108.27 197.692 108.27C196.272 108.27 195.022 107.96 193.942 107.34C192.882 106.72 192.082 105.93 191.542 104.97V108H188.812V85.8H191.542V94.62ZM202.702 99.72C202.702 98.48 202.452 97.4 201.952 96.48C201.452 95.56 200.772 94.86 199.912 94.38C199.072 93.9 198.142 93.66 197.122 93.66C196.122 93.66 195.192 93.91 194.332 94.41C193.492 94.89 192.812 95.6 192.292 96.54C191.792 97.46 191.542 98.53 191.542 99.75C191.542 100.99 191.792 102.08 192.292 103.02C192.812 103.94 193.492 104.65 194.332 105.15C195.192 105.63 196.122 105.87 197.122 105.87C198.142 105.87 199.072 105.63 199.912 105.15C200.772 104.65 201.452 103.94 201.952 103.02C202.452 102.08 202.702 100.98 202.702 99.72ZM99.8392 133.8V131.31H105.479V153H102.719V133.8H99.8392ZM119.487 153.18C118.967 153.18 118.527 153 118.167 152.64C117.807 152.28 117.627 151.84 117.627 151.32C117.627 150.8 117.807 150.36 118.167 150C118.527 149.64 118.967 149.46 119.487 149.46C119.987 149.46 120.407 149.64 120.747 150C121.107 150.36 121.287 150.8 121.287 151.32C121.287 151.84 121.107 152.28 120.747 152.64C120.407 153 119.987 153.18 119.487 153.18ZM119.487 140.34C118.967 140.34 118.527 140.16 118.167 139.8C117.807 139.44 117.627 139 117.627 138.48C117.627 137.96 117.807 137.52 118.167 137.16C118.527 136.8 118.967 136.62 119.487 136.62C119.987 136.62 120.407 136.8 120.747 137.16C121.107 137.52 121.287 137.96 121.287 138.48C121.287 139 121.107 139.44 120.747 139.8C120.407 140.16 119.987 140.34 119.487 140.34ZM131.831 133.8V131.31H137.471V153H134.711V133.8H131.831Z" fill="#6418C3"/>
</svg>
