<svg width="27" height="27" viewBox="0 0 27 27" fill="none" xmlns="http://www.w3.org/2000/svg">
<path fill-rule="evenodd" clip-rule="evenodd" d="M3.66933 9.33333C5.37067 3.92667 10.4267 0 16.392 0C20.3373 0 23.884 1.716 26.3267 4.444C26.8173 4.992 26.7707 5.836 26.2227 6.32667C25.6747 6.81733 24.8307 6.77067 24.34 6.22267C22.3853 4.04133 19.548 2.66667 16.392 2.66667C11.9187 2.66667 8.08534 5.42533 6.50134 9.33333H12C12.736 9.33333 13.3333 9.93067 13.3333 10.6667C13.3333 11.4027 12.736 12 12 12H5.808C5.75334 12.4373 5.72534 12.8813 5.72534 13.3333C5.72534 13.7853 5.75334 14.2293 5.808 14.6667H12C12.736 14.6667 13.3333 15.264 13.3333 16C13.3333 16.736 12.736 17.3333 12 17.3333H6.50134C8.08534 21.2413 11.9187 24 16.392 24C19.548 24 22.3853 22.6253 24.34 20.444C24.8307 19.896 25.6747 19.8493 26.2227 20.34C26.7707 20.8307 26.8173 21.6747 26.3267 22.2227C23.884 24.9507 20.3373 26.6667 16.392 26.6667C10.4267 26.6667 5.37067 22.74 3.66933 17.3333H1.33333C0.597333 17.3333 0 16.736 0 16C0 15.264 0.597333 14.6667 1.33333 14.6667H3.124C3.08134 14.228 3.05868 13.7827 3.05868 13.3333C3.05868 12.884 3.08134 12.4387 3.124 12H1.33333C0.597333 12 0 11.4027 0 10.6667C0 9.93067 0.597333 9.33333 1.33333 9.33333H3.66933Z" fill="#6418C3"/>
</svg>
