<svg width="34" height="30" viewBox="0 0 34 30" fill="none" xmlns="http://www.w3.org/2000/svg">
<path d="M22.73 23.9837C20.9013 25.6186 18.952 27.3612 16.9956 29.295C15.0424 27.3645 13.097 25.6245 11.2717 23.992L11.1567 23.8892C9.18377 22.1246 7.36042 20.489 5.80049 18.8569C2.68219 15.5944 0.686035 12.416 0.686035 8.40488C0.686035 4.04064 4.2273 0.500077 8.59084 0.500077C10.5986 0.500077 12.0587 0.998501 13.2686 1.96646C14.4965 2.94872 15.5079 4.44644 16.5484 6.52712L16.9957 7.42152L17.4429 6.52706C18.483 4.44639 19.4943 2.94867 20.722 1.96641C21.9319 0.998443 23.3919 0.5 25.3997 0.5C29.7736 0.5 33.3144 4.04095 33.3144 8.4048C33.3144 12.4158 31.316 15.5941 28.1952 18.8568C26.6341 20.4889 24.8096 22.1245 22.8358 23.8891L22.73 23.9837Z" fill="url(#paint0_linear)" stroke="#AE0000"/>
<defs>
<linearGradient id="paint0_linear" x1="17.0002" y1="0" x2="17.0002" y2="30" gradientUnits="userSpaceOnUse">
<stop stop-color="#FF9393"/>
<stop offset="1" stop-color="#B30D0D"/>
</linearGradient>
</defs>
</svg>
