<svg width="32" height="32" viewBox="0 0 32 32" fill="none" xmlns="http://www.w3.org/2000/svg">
<path d="M31.52 0.415692C31.04 -0.0643078 30.4 -0.0643078 29.92 0.0956922L1.12 9.69569C0.48 9.85569 0 10.4957 0 11.1357C0 11.7757 0.32 12.4157 0.96 12.7357L14.08 17.8557L19.2 30.9757C19.36 31.6157 20 31.9357 20.64 31.9357C21.28 31.9357 21.92 31.4557 22.08 30.8157L31.68 2.01569C32 1.53569 32 0.895692 31.52 0.415692V0.415692ZM24.48 5.21569L15.04 14.6557L6.4 11.2957L24.48 5.21569V5.21569ZM20.64 25.5357L17.28 16.8957L26.72 7.45569L20.64 25.5357Z" fill="#A5A5A5"/>
</svg>
