<svg width="27" height="22" viewBox="0 0 27 22" fill="none" xmlns="http://www.w3.org/2000/svg">
<path fill-rule="evenodd" clip-rule="evenodd" d="M26.6676 5.33308C26.6676 2.38789 24.2796 0 21.3341 0C16.894 0 9.77236 0 5.33353 0C2.38809 0 0 2.38789 0 5.33308V15.9993C0 18.9445 2.38809 21.3324 5.33353 21.3324H21.3341C24.2796 21.3324 26.6676 18.9445 26.6676 15.9993V5.33308ZM24.0009 15.9993H2.66676C2.66676 17.4725 3.86014 18.6658 5.33353 18.6658H21.3341C22.8062 18.6658 24.0009 17.4725 24.0009 15.9993ZM2.66676 11.9994V13.3327H24.0009V11.9994H2.66676ZM24.0009 9.3329V5.33308C24.0009 3.86115 22.8062 2.66654 21.3341 2.66654C16.894 2.66654 9.77236 2.66654 5.33353 2.66654C3.86014 2.66654 2.66676 3.86115 2.66676 5.33308V9.3329H24.0009Z" fill="#6418C3"/>
</svg>
