<svg width="22" height="27" viewBox="0 0 22 27" fill="none" xmlns="http://www.w3.org/2000/svg">
<path fill-rule="evenodd" clip-rule="evenodd" d="M13.468 20.8278C16.5027 19.6918 18.6667 16.7625 18.6667 13.3332C18.6667 11.1252 17.7693 9.12516 16.3213 7.67716C15.8013 7.15716 15.8013 6.31184 16.3213 5.79184C16.8427 5.27184 17.6867 5.27184 18.208 5.79184C20.1387 7.72251 21.3333 10.3892 21.3333 13.3332C21.3333 17.9772 18.3587 21.9318 14.212 23.3945L15.4267 24.2372C16.0307 24.6572 16.1813 25.4878 15.7613 26.0932C15.3427 26.6972 14.5107 26.8478 13.9067 26.4278L9.90667 23.6532C9.304 23.2358 9.152 22.4092 9.56667 21.8038L12.2333 17.9132C12.6493 17.3052 13.48 17.1505 14.0867 17.5665C14.6933 17.9825 14.848 18.8132 14.432 19.4198L13.468 20.8278ZM7.152 3.25984L5.92667 2.4425C5.31467 2.0345 5.148 1.20516 5.556 0.593163C5.96533 -0.0188366 6.79333 -0.18417 7.40533 0.22383L11.4053 2.8905C12.0187 3.2985 12.184 4.12651 11.776 4.73984L9.10933 8.73984C8.7 9.35184 7.872 9.51716 7.26 9.10916C6.648 8.70116 6.48133 7.87184 6.88933 7.25984L7.82933 5.85184C4.812 6.99717 2.66667 9.91583 2.66667 13.3332C2.66667 15.5412 3.56267 17.5398 5.01067 18.9892C5.53067 19.5092 5.53067 20.3532 5.01067 20.8745C4.49067 21.3945 3.64533 21.3945 3.12533 20.8745C1.19466 18.9438 0 16.2772 0 13.3332C0 8.67716 2.98933 4.71317 7.152 3.25984V3.25984Z" fill="#BFBFBF"/>
</svg>
