<svg width="30" height="28" viewBox="0 0 30 28" fill="none" xmlns="http://www.w3.org/2000/svg">
<path d="M2 2H10C11.4145 2 12.771 2.5619 13.7712 3.5621C14.7714 4.56229 15.3333 5.91885 15.3333 7.33333V26C15.3333 24.9391 14.9119 23.9217 14.1618 23.1716C13.4116 22.4214 12.3942 22 11.3333 22H2V2Z" stroke="#6418C3" stroke-width="2.2" stroke-linecap="round" stroke-linejoin="round"/>
<path d="M28.6668 2H20.6668C19.2523 2 17.8958 2.5619 16.8956 3.5621C15.8954 4.56229 15.3335 5.91885 15.3335 7.33333V26C15.3335 24.9391 15.7549 23.9217 16.5051 23.1716C17.2552 22.4214 18.2726 22 19.3335 22H28.6668V2Z" stroke="#6418C3" stroke-width="2.2" stroke-linecap="round" stroke-linejoin="round"/>
</svg>
