<svg width="513" height="512" viewBox="0 0 513 512" fill="none" xmlns="http://www.w3.org/2000/svg">
<rect x="1" y="0.5" width="511" height="511" rx="19.5" fill="black" stroke="white"/>
<path d="M320.534 44.3051C363.064 44.3051 384.09 44.3051 407.028 51.4731C431.877 60.5525 451.469 80.1451 460.549 104.994C467.717 127.932 467.717 148.958 467.717 191.488V319.556C467.717 362.086 467.717 383.113 460.549 406.05C451.469 430.899 431.877 450.492 407.028 459.571C384.09 466.739 363.064 466.739 320.534 466.739H192.466C149.936 466.739 128.909 466.739 105.972 459.571C81.1227 450.492 61.5302 430.899 52.4507 406.05C45.2827 383.113 45.2827 362.086 45.2827 319.556V191.966C45.2827 149.436 45.2827 128.41 52.4507 105.472C61.5302 80.6229 81.1227 61.0304 105.972 51.9509C128.909 44.7829 149.936 44.7829 192.466 44.7829H320.534V44.3051Z" fill="#141416"/>
<mask id="mask0" mask-type="alpha" maskUnits="userSpaceOnUse" x="45" y="44" width="423" height="423">
<path d="M320.534 44.3051C363.064 44.3051 384.09 44.3051 407.028 51.4731C431.877 60.5525 451.469 80.1451 460.549 104.994C467.717 127.932 467.717 148.958 467.717 191.488V319.556C467.717 362.086 467.717 383.113 460.549 406.05C451.469 430.899 431.877 450.492 407.028 459.571C384.09 466.739 363.064 466.739 320.534 466.739H192.466C149.936 466.739 128.909 466.739 105.972 459.571C81.1227 450.492 61.5302 430.899 52.4507 406.05C45.2827 383.113 45.2827 362.086 45.2827 319.556V191.966C45.2827 149.436 45.2827 128.41 52.4507 105.472C61.5302 80.6229 81.1227 61.0304 105.972 51.9509C128.909 44.7829 149.936 44.7829 192.466 44.7829H320.534V44.3051Z" fill="white"/>
</mask>
<g mask="url(#mask0)">
<path d="M41.46 284.672C41.46 284.672 53.8845 284.672 66.7869 288.973C77.7778 292.318 89.2466 300.442 95.9368 299.964C110.273 299.008 125.087 294.229 125.087 294.229L151.847 259.345L177.174 280.849L203.935 218.248L229.739 286.583L258.889 304.264L285.172 257.434L310.499 250.743L337.737 172.373L364.02 236.407L390.78 218.726L417.063 270.336L442.39 212.514L470.584 183.364V471.04H42.4157L41.46 284.672Z" fill="url(#paint0_linear)" stroke="white" stroke-width="0.75"/>
</g>
<mask id="mask1" mask-type="alpha" maskUnits="userSpaceOnUse" x="45" y="44" width="423" height="423">
<path d="M320.534 44.3051C363.064 44.3051 384.09 44.3051 407.028 51.4731C431.877 60.5525 451.469 80.1451 460.549 104.994C467.717 127.932 467.717 148.958 467.717 191.488V319.556C467.717 362.086 467.717 383.113 460.549 406.05C451.469 430.899 431.877 450.492 407.028 459.571C384.09 466.739 363.064 466.739 320.534 466.739H192.466C149.936 466.739 128.909 466.739 105.972 459.571C81.1227 450.492 61.5302 430.899 52.4507 406.05C45.2827 383.113 45.2827 362.086 45.2827 319.556V191.966C45.2827 149.436 45.2827 128.41 52.4507 105.472C61.5302 80.6229 81.1227 61.0304 105.972 51.9509C128.909 44.7829 149.936 44.7829 192.466 44.7829H320.534V44.3051Z" fill="white"/>
</mask>
<g mask="url(#mask1)">
<path d="M337.259 157.559V33.7919H333.914V157.082C334.392 157.082 334.87 157.082 335.825 157.082C336.781 157.082 336.781 157.559 337.259 157.559ZM337.259 196.267V489.199H333.914V196.267C334.392 196.267 334.87 196.267 335.825 196.267C336.781 196.267 336.781 196.267 337.259 196.267ZM335.825 192.444C327.224 192.444 320.056 185.276 320.056 176.674C320.056 168.072 327.224 160.904 335.825 160.904C344.427 160.904 351.595 168.072 351.595 176.674C351.595 185.276 344.427 192.444 335.825 192.444Z" fill="black"/>
<path d="M337.259 157.559V33.7919H333.914V157.082C334.392 157.082 334.87 157.082 335.825 157.082C336.781 157.082 336.781 157.559 337.259 157.559ZM337.259 196.267V489.199H333.914V196.267C334.392 196.267 334.87 196.267 335.825 196.267C336.781 196.267 336.781 196.267 337.259 196.267ZM335.825 192.444C327.224 192.444 320.056 185.276 320.056 176.674C320.056 168.072 327.224 160.904 335.825 160.904C344.427 160.904 351.595 168.072 351.595 176.674C351.595 185.276 344.427 192.444 335.825 192.444Z" fill="#01A6F1"/>
</g>
<mask id="mask2" mask-type="alpha" maskUnits="userSpaceOnUse" x="45" y="44" width="423" height="423">
<path d="M320.534 44.3051C363.064 44.3051 384.09 44.3051 407.028 51.4731C431.877 60.5525 451.469 80.1451 460.549 104.994C467.717 127.932 467.717 148.958 467.717 191.488V319.556C467.717 362.086 467.717 383.113 460.549 406.05C451.469 430.899 431.877 450.492 407.028 459.571C384.09 466.739 363.064 466.739 320.534 466.739H192.466C149.936 466.739 128.909 466.739 105.972 459.571C81.1227 450.492 61.5302 430.899 52.4507 406.05C45.2827 383.113 45.2827 362.086 45.2827 319.556V191.966C45.2827 149.436 45.2827 128.41 52.4507 105.472C61.5302 80.6229 81.1227 61.0304 105.972 51.9509C128.909 44.7829 149.936 44.7829 192.466 44.7829H320.534V44.3051Z" fill="white"/>
</mask>
<g mask="url(#mask2)">
<path d="M94.0254 33.7919H97.3705V488.721H94.0254V33.7919ZM175.263 33.7919H178.608V488.721H175.263V33.7919ZM256.5 33.7919H259.845V488.721H256.5V33.7919ZM415.152 33.7919H418.497V488.721H415.152V33.7919Z" fill="#777778"/>
</g>
<defs>
<linearGradient id="paint0_linear" x1="255.872" y1="172.355" x2="255.872" y2="471.04" gradientUnits="userSpaceOnUse">
<stop stop-color="#454545"/>
<stop offset="1" stop-color="#111112"/>
</linearGradient>
</defs>
</svg>
