<svg width="513" height="512" viewBox="0 0 513 512" fill="none" xmlns="http://www.w3.org/2000/svg">
<rect x="1" y="0.5" width="511" height="511" rx="19.5" fill="#6418C3" stroke="#6418C3"/>
<path d="M292.98 175.579H280.82V163.935H292.98V175.579ZM232.18 175.579H220.02V163.935H232.18V175.579ZM299.425 142.512L315.354 127.259C317.665 125.047 317.665 121.321 315.354 118.992C312.922 116.78 309.031 116.78 306.721 118.992L288.724 136.224C278.996 131.684 268.052 129.006 256.5 129.006C244.826 129.006 233.882 131.684 224.154 136.341L206.036 118.992C203.725 116.78 199.834 116.78 197.524 118.992C195.092 121.321 195.092 125.047 197.524 127.259L213.453 142.512C195.335 155.319 183.54 175.579 183.54 198.865H329.46C329.46 175.579 317.3 155.203 299.425 142.512V142.512ZM359.86 210.508C355.022 210.508 350.383 212.348 346.962 215.624C343.542 218.899 341.62 223.341 341.62 227.973V309.476C341.62 314.108 343.542 318.55 346.962 321.825C350.383 325.1 355.022 326.941 359.86 326.941C362.255 326.941 364.627 326.489 366.84 325.611C369.053 324.733 371.064 323.447 372.758 321.825C374.451 320.203 375.795 318.278 376.711 316.159C377.628 314.04 378.1 311.769 378.1 309.476V227.973C378.1 225.68 377.628 223.409 376.711 221.29C375.795 219.171 374.451 217.245 372.758 215.624C371.064 214.002 369.053 212.715 366.84 211.838C364.627 210.96 362.255 210.508 359.86 210.508V210.508ZM153.14 210.508C150.745 210.508 148.373 210.96 146.16 211.838C143.947 212.715 141.936 214.002 140.242 215.624C138.549 217.245 137.205 219.171 136.288 221.29C135.372 223.409 134.9 225.68 134.9 227.973V309.476C134.9 314.108 136.822 318.55 140.242 321.825C143.663 325.1 148.302 326.941 153.14 326.941C157.977 326.941 162.617 325.1 166.038 321.825C169.458 318.55 171.38 314.108 171.38 309.476V227.973C171.38 223.341 169.458 218.899 166.038 215.624C162.617 212.348 157.977 210.508 153.14 210.508V210.508ZM183.54 326.941C183.54 328.47 183.854 329.984 184.466 331.396C185.077 332.809 185.972 334.092 187.101 335.174C188.231 336.255 189.571 337.112 191.046 337.698C192.522 338.283 194.103 338.584 195.7 338.584H207.86V379.335C207.86 381.629 208.332 383.9 209.248 386.019C210.165 388.138 211.509 390.063 213.202 391.685C214.896 393.306 216.907 394.593 219.12 395.471C221.333 396.348 223.705 396.8 226.1 396.8C228.495 396.8 230.867 396.348 233.08 395.471C235.293 394.593 237.304 393.306 238.998 391.685C240.691 390.063 242.035 388.138 242.951 386.019C243.868 383.9 244.34 381.629 244.34 379.335V338.584H268.66V379.335C268.66 381.629 269.132 383.9 270.048 386.019C270.965 388.138 272.308 390.063 274.002 391.685C275.696 393.306 277.707 394.593 279.92 395.471C282.133 396.348 284.505 396.8 286.9 396.8C289.295 396.8 291.667 396.348 293.88 395.471C296.093 394.593 298.104 393.306 299.798 391.685C301.491 390.063 302.835 388.138 303.751 386.019C304.668 383.9 305.14 381.629 305.14 379.335V338.584H317.3C318.897 338.584 320.478 338.283 321.953 337.698C323.429 337.112 324.769 336.255 325.898 335.174C327.027 334.092 327.923 332.809 328.534 331.396C329.145 329.984 329.46 328.47 329.46 326.941V210.508H183.54V326.941V326.941Z" fill="white"/>
</svg>
