<svg width="513" height="512" viewBox="0 0 513 512" fill="none" xmlns="http://www.w3.org/2000/svg">
<rect x="1" y="0.5" width="511" height="511" rx="19.5" fill="black" stroke="#6418C3"/>
<g clip-path="url(#clip0)">
<path d="M257.567 462.933C371.264 462.933 463.434 370.764 463.434 257.067C463.434 143.37 371.264 51.2 257.567 51.2C143.87 51.2 51.7002 143.37 51.7002 257.067C51.7002 370.764 143.87 462.933 257.567 462.933Z" fill="white"/>
<path fill-rule="evenodd" clip-rule="evenodd" d="M257.567 462.933C143.87 462.933 51.7002 370.764 51.7002 257.067C51.7002 143.37 143.87 51.2 257.567 51.2C371.264 51.2 463.434 143.37 463.434 257.067C463.434 370.764 371.264 462.933 257.567 462.933ZM257.254 213.77C257.254 213.77 315.803 207.037 315.803 144.513C315.803 144.513 257.254 141.628 257.254 213.77ZM371.473 248.399C371.473 248.399 335 184.913 257.254 233.97C199.594 193.419 134.58 239.684 131.517 308.036C127.86 389.633 178.015 452.828 204.464 452.322C238.065 451.677 236.138 438.855 261.093 438.855C286.049 438.855 290.848 452.322 311.005 453.283C331.16 454.245 377.232 409.997 378.192 370.56C378.192 370.56 292.768 308.036 371.473 248.399Z" fill="black"/>
<path opacity="0.1" fill-rule="evenodd" clip-rule="evenodd" d="M112.014 402.612C31.63 322.228 31.63 191.899 112.014 111.514C192.399 31.1296 322.728 31.1296 403.112 111.514" fill="white"/>
</g>
<defs>
<clipPath id="clip0">
<rect width="411.733" height="411.733" fill="white" transform="translate(51.7002 51.2)"/>
</clipPath>
</defs>
</svg>
