<svg width="513" height="512" viewBox="0 0 513 512" fill="none" xmlns="http://www.w3.org/2000/svg">
<rect x="1" y="0.5" width="511" height="511" rx="19.5" fill="#82B541" stroke="#82B541"/>
<path fill-rule="evenodd" clip-rule="evenodd" d="M173.734 296.813C174.413 289.096 174.82 281.244 175.77 273.527C183.101 211.658 211.742 161.431 258.845 120.951C283.142 100.103 287.758 95.635 330.381 89.0013C347.484 86.2936 362.823 85.8875 368.796 98.7488C375.718 113.505 383.184 128.127 387.935 143.56C456.349 363.556 314.092 457.918 206.448 417.574C102.198 378.448 75.4571 255.521 148.215 179.166C152.966 174.157 157.581 182.28 157.038 185.935C155.409 197.984 136.405 265.404 171.834 298.302C172.513 297.761 173.056 297.354 173.734 296.813Z" fill="white"/>
</svg>
