<svg width="52" height="52" viewBox="0 0 52 52" fill="none" xmlns="http://www.w3.org/2000/svg">
<path d="M0 16C0 8.45753 0 4.68629 2.34315 2.34315C4.68629 0 8.45753 0 16 0H36C43.5425 0 47.3137 0 49.6569 2.34315C52 4.68629 52 8.45753 52 16V36C52 43.5425 52 47.3137 49.6569 49.6569C47.3137 52 43.5425 52 36 52H16C8.45753 52 4.68629 52 2.34315 49.6569C0 47.3137 0 43.5425 0 36V16Z" fill="url(#paint0_linear)"/>
<path d="M14 24.708C14 23.172 14.288 21.648 14.864 20.136C15.44 18.6 16.28 17.232 17.384 16.032C18.488 14.832 19.832 13.86 21.416 13.116C23 12.372 24.8 12 26.816 12C29.216 12 31.292 12.516 33.044 13.548C34.82 14.58 36.14 15.924 37.004 17.58L32.468 20.748C32.18 20.076 31.808 19.524 31.352 19.092C30.92 18.636 30.44 18.276 29.912 18.012C29.384 17.724 28.844 17.532 28.292 17.436C27.74 17.316 27.2 17.256 26.672 17.256C25.544 17.256 24.56 17.484 23.72 17.94C22.88 18.396 22.184 18.984 21.632 19.704C21.08 20.424 20.672 21.24 20.408 22.152C20.144 23.064 20.012 23.988 20.012 24.924C20.012 25.932 20.168 26.904 20.48 27.84C20.792 28.776 21.236 29.604 21.812 30.324C22.412 31.044 23.12 31.62 23.936 32.052C24.776 32.46 25.712 32.664 26.744 32.664C27.272 32.664 27.812 32.604 28.364 32.484C28.94 32.34 29.48 32.136 29.984 31.872C30.512 31.584 30.992 31.224 31.424 30.792C31.856 30.336 32.204 29.784 32.468 29.136L37.292 31.98C36.908 32.916 36.332 33.756 35.564 34.5C34.82 35.244 33.956 35.868 32.972 36.372C31.988 36.876 30.944 37.26 29.84 37.524C28.736 37.788 27.656 37.92 26.6 37.92C24.752 37.92 23.048 37.548 21.488 36.804C19.952 36.036 18.62 35.028 17.492 33.78C16.388 32.532 15.524 31.116 14.9 29.532C14.3 27.948 14 26.34 14 24.708Z" fill="white"/>
<defs>
<linearGradient id="paint0_linear" x1="26" y1="0" x2="44" y2="62.5" gradientUnits="userSpaceOnUse">
<stop stop-color="#6418C3"/>
<stop offset="1" stop-color="#6418C3"/>
</linearGradient>
</defs>
</svg>
